<svg width="44" height="44" viewBox="0 0 44 44" fill="none" xmlns="http://www.w3.org/2000/svg">
<path d="M26.9843 12.5001H16.4943C15.8998 12.4995 15.3112 12.6168 14.7622 12.8451C14.2133 13.0734 13.7151 13.4081 13.2963 13.8301C12.8792 14.2507 12.5498 14.75 12.3273 15.299C12.1048 15.848 11.9937 16.4357 12.0003 17.0281V27.4721C11.9931 28.0645 12.104 28.6524 12.3265 29.2015C12.549 29.7506 12.8787 30.2498 13.2963 30.6701C13.715 31.0919 14.2131 31.4266 14.7618 31.6549C15.3105 31.8832 15.899 32.0005 16.4933 32.0001H21.2563V25.0341H19.4363C19.3237 25.0333 19.2158 24.9883 19.136 24.9089C19.0561 24.8294 19.0106 24.7217 19.0093 24.6091V22.3731C19.0092 22.3156 19.0205 22.2587 19.0424 22.2056C19.0644 22.1525 19.0967 22.1043 19.1374 22.0638C19.1782 22.0232 19.2265 21.9912 19.2797 21.9694C19.3329 21.9477 19.3899 21.9367 19.4473 21.9371H21.2563V19.7571C21.2056 19.2419 21.2685 18.7218 21.4406 18.2335C21.6127 17.7452 21.8898 17.3006 22.2523 16.9311C22.6153 16.5598 23.0548 16.2722 23.5403 16.0883C24.0258 15.9044 24.5455 15.8285 25.0633 15.8661H26.9173C26.9741 15.8665 27.0301 15.8781 27.0824 15.9002C27.1346 15.9224 27.1819 15.9547 27.2216 15.9952C27.2613 16.0357 27.2926 16.0837 27.3136 16.1364C27.3347 16.189 27.3451 16.2454 27.3443 16.3021V18.1921C27.3443 18.248 27.3333 18.3034 27.3118 18.355C27.2903 18.4067 27.2588 18.4535 27.2191 18.493C27.1794 18.5324 27.1323 18.5635 27.0805 18.5847C27.0287 18.6058 26.9733 18.6165 26.9173 18.6161H25.7943C24.5583 18.6161 24.3223 19.1981 24.3223 20.0471V21.9261H27.0183C27.0791 21.9258 27.1393 21.9384 27.1948 21.9632C27.2503 21.9879 27.2999 22.0242 27.3403 22.0696C27.3807 22.115 27.4109 22.1685 27.4291 22.2265C27.4472 22.2845 27.4527 22.3457 27.4453 22.4061L27.1753 24.6431C27.1644 24.7483 27.1145 24.8455 27.0355 24.9158C26.9565 24.9861 26.8541 25.0244 26.7483 25.0231H24.3333V31.9891H27.0073C27.6016 31.9895 28.1902 31.8722 28.7389 31.6439C29.2876 31.4156 29.7857 31.0809 30.2043 30.6591C30.6216 30.2384 30.9511 29.7389 31.1735 29.1897C31.396 28.6405 31.5071 28.0526 31.5003 27.4601V17.0281C31.5081 16.4337 31.3968 15.8437 31.1728 15.2931C30.9488 14.7425 30.6168 14.2423 30.1963 13.8221C29.7752 13.3999 29.2744 13.0656 28.723 12.8387C28.1716 12.6117 27.5806 12.4966 26.9843 12.5001Z" fill="#999999"/>
</svg>
