<svg width="44" height="45" viewBox="0 0 44 45" fill="none" xmlns="http://www.w3.org/2000/svg">
<path d="M22.3663 19.5071C20.646 19.5071 19.2421 20.911 19.2421 22.6314C19.2421 24.3517 20.646 25.7556 22.3663 25.7556C24.0866 25.7556 25.4905 24.3517 25.4905 22.6314C25.4905 20.911 24.0866 19.5071 22.3663 19.5071ZM31.7366 22.6314C31.7366 21.3376 31.7484 20.0556 31.6757 18.7642C31.603 17.2642 31.2609 15.9329 30.164 14.836C29.0648 13.7368 27.7359 13.397 26.2359 13.3243C24.9421 13.2517 23.6601 13.2634 22.3687 13.2634C21.0749 13.2634 19.7929 13.2517 18.5015 13.3243C17.0015 13.397 15.6702 13.7392 14.5734 14.836C13.4741 15.9353 13.1343 17.2642 13.0616 18.7642C12.989 20.0579 13.0007 21.34 13.0007 22.6314C13.0007 23.9228 12.989 25.2071 13.0616 26.4985C13.1343 27.9985 13.4765 29.3298 14.5734 30.4267C15.6726 31.5259 17.0015 31.8657 18.5015 31.9384C19.7952 32.011 21.0773 31.9993 22.3687 31.9993C23.6624 31.9993 24.9444 32.011 26.2359 31.9384C27.7359 31.8657 29.0671 31.5235 30.164 30.4267C31.2632 29.3275 31.603 27.9985 31.6757 26.4985C31.7507 25.2071 31.7366 23.9251 31.7366 22.6314ZM22.3663 27.4384C19.7062 27.4384 17.5593 25.2915 17.5593 22.6314C17.5593 19.9712 19.7062 17.8243 22.3663 17.8243C25.0265 17.8243 27.1734 19.9712 27.1734 22.6314C27.1734 25.2915 25.0265 27.4384 22.3663 27.4384ZM27.3702 18.7501C26.7491 18.7501 26.2476 18.2485 26.2476 17.6275C26.2476 17.0064 26.7491 16.5048 27.3702 16.5048C27.9913 16.5048 28.4929 17.0064 28.4929 17.6275C28.4931 17.7749 28.4642 17.921 28.4078 18.0573C28.3515 18.1936 28.2688 18.3174 28.1645 18.4217C28.0602 18.526 27.9364 18.6087 27.8001 18.665C27.6638 18.7214 27.5177 18.7503 27.3702 18.7501Z" fill="#999999"/>
</svg>
