<svg width="226" height="59" viewBox="0 0 226 59" fill="none" xmlns="http://www.w3.org/2000/svg">
<g filter="url(#filter0_i_140_1603)">
<path d="M124.917 12.263C124.822 12.1066 124.695 11.9695 124.543 11.8596C124.391 11.7497 124.218 11.6693 124.032 11.623C123.192 11.4213 122.321 11.3537 121.457 11.423C121.954 9.36005 121.629 7.73205 121.302 6.78305C121.188 6.4478 120.945 6.16447 120.62 5.98828C120.295 5.81209 119.912 5.75568 119.546 5.83005C118.408 6.06951 117.33 6.51482 116.374 7.14105C115.708 5.78244 114.702 4.59527 113.441 3.68105C113.182 3.49811 112.867 3.39917 112.543 3.39917C112.219 3.39917 111.904 3.49811 111.645 3.68105C110.385 4.59568 109.379 5.78276 108.714 7.14105C107.757 6.5147 106.679 6.06939 105.541 5.83005C105.174 5.75577 104.791 5.81236 104.467 5.98875C104.142 6.16515 103.899 6.44869 103.786 6.78405C103.458 7.73305 103.133 9.36105 103.631 11.424C102.767 11.3547 101.896 11.4223 101.055 11.624C100.87 11.6703 100.696 11.7507 100.544 11.8606C100.392 11.9705 100.265 12.1076 100.171 12.264C100.071 12.4248 100.006 12.6026 99.9808 12.787C99.9552 12.9714 99.969 13.1587 100.021 13.338C100.374 14.566 101.46 16.9 104.755 18.751C108.051 20.602 110.976 20.6 112.544 20.6C114.111 20.6 117.033 20.6 120.33 18.751C123.627 16.902 124.711 14.566 125.064 13.337C125.117 13.1578 125.131 12.9706 125.106 12.7862C125.08 12.6018 125.016 12.4239 124.917 12.263ZM116.858 8.29005C117.735 7.66921 118.743 7.22958 119.814 7.00005C119.871 6.98915 119.93 6.99846 119.98 7.02617C120.03 7.05388 120.068 7.09803 120.085 7.15005C120.505 8.37205 120.917 10.9 118.956 14.1C118.169 15.3622 117.16 16.4904 115.972 17.437C116.791 16.1 117.446 14.293 117.446 11.917C117.456 10.6864 117.258 9.46215 116.858 8.29005ZM105.003 7.15305C105.019 7.10047 105.056 7.05563 105.106 7.02733C105.156 6.99902 105.216 6.98929 105.273 7.00005C106.345 7.22958 107.352 7.66921 108.23 8.29005C107.83 9.46215 107.631 10.6864 107.641 11.917C107.641 14.293 108.297 16.102 109.113 17.434C107.925 16.4877 106.916 15.3594 106.129 14.097C104.17 10.9 104.583 8.37205 105.003 7.15305ZM105.412 17.72C102.502 16.089 101.559 14.078 101.255 13.02C101.248 12.9932 101.245 12.9651 101.249 12.9374C101.253 12.9098 101.263 12.8831 101.278 12.859C101.301 12.8204 101.339 12.7917 101.384 12.779C102.246 12.5783 103.141 12.5419 104.018 12.672C104.288 13.3747 104.624 14.0533 105.023 14.7C106.116 16.4706 107.607 17.9966 109.392 19.172C107.985 18.9108 106.638 18.4193 105.412 17.72ZM112.544 19.286C111.619 18.666 108.92 16.466 108.92 11.917C108.92 7.58105 111.365 5.38305 112.416 4.63905C112.453 4.61308 112.498 4.59905 112.544 4.59905C112.59 4.59905 112.635 4.61308 112.672 4.63905C113.722 5.38305 116.167 7.58105 116.167 11.917C116.167 16.494 113.483 18.667 112.544 19.286ZM123.83 13.024C123.526 14.078 122.583 16.089 119.674 17.724C118.446 18.4219 117.098 18.9117 115.69 19.171C117.475 17.9956 118.966 16.4696 120.059 14.699C120.46 14.0528 120.798 13.3745 121.07 12.672C121.947 12.543 122.844 12.5807 123.705 12.783C123.751 12.7957 123.789 12.8244 123.812 12.863C123.827 12.8872 123.836 12.914 123.839 12.9416C123.843 12.9693 123.84 12.9973 123.832 13.024H123.83Z" fill="#1F1F1F"/>
<path d="M54.7701 38.9956C54.4675 39.0359 54.0944 39.0662 53.6507 39.0864C53.2272 39.1065 52.7734 39.1166 52.2893 39.1166C51.8053 39.1166 51.3212 39.1166 50.8372 39.1166C50.3733 39.0965 49.9498 39.0763 49.5666 39.0561C49.385 39.0561 49.2338 38.9452 49.1128 38.7233C49.0119 38.4813 48.9615 38.2292 48.9615 37.967C48.9615 37.6846 49.0119 37.4325 49.1128 37.2107C49.2338 36.9888 49.4254 36.8779 49.6876 36.8779C50.1716 36.8779 50.6153 36.888 51.0187 36.9082C51.4422 36.9283 51.8557 36.9384 52.2591 36.9384C52.6423 36.9384 53.0356 36.9384 53.4389 36.9384C53.8423 36.9182 54.2658 36.8779 54.7096 36.8174C54.9516 36.8577 55.123 36.9989 55.2239 37.2409C55.3449 37.4628 55.4054 37.7048 55.4054 37.967C55.4054 38.2292 55.3449 38.4712 55.2239 38.6931C55.123 38.8948 54.9718 38.9956 54.7701 38.9956ZM53.681 31.7349C53.1364 31.7551 52.6221 31.7752 52.1381 31.7954C51.6742 31.7954 51.2405 31.7954 50.8372 31.7954C50.4338 31.7954 49.9901 31.7954 49.506 31.7954C49.0422 31.7752 48.5379 31.7551 47.9934 31.7349C48.0136 32.5013 48.0236 33.308 48.0236 34.1551C48.0236 35.0022 48.0236 35.8493 48.0236 36.6964C48.0236 37.4628 48.0136 38.2191 47.9934 38.9654C47.9934 39.7116 47.9833 40.4276 47.9631 41.1133C47.9631 41.7991 47.943 42.4243 47.9026 42.989C47.8825 43.5537 47.8522 44.0378 47.8119 44.4411C47.7715 44.784 47.6404 45.0361 47.4186 45.1975C47.2169 45.3588 46.995 45.4395 46.753 45.4395C46.4102 45.4395 46.1177 45.3487 45.8757 45.1672C45.6337 44.9857 45.5126 44.7235 45.5126 44.3806C45.5328 43.8563 45.553 43.2512 45.5732 42.5655C45.6135 41.8596 45.6437 41.1133 45.6639 40.3267C45.7043 39.5402 45.7244 38.7334 45.7244 37.9065C45.7446 37.0594 45.7547 36.2325 45.7547 35.4258C45.7547 34.3972 45.7345 33.4391 45.6942 32.5517C45.6538 31.6643 45.6337 30.8979 45.6337 30.2525C45.6337 29.9701 45.7547 29.7684 45.9967 29.6474C46.2387 29.5264 46.511 29.4659 46.8135 29.4659C47.1564 29.4659 47.5295 29.4861 47.9329 29.5264C48.3564 29.5668 48.8001 29.5869 49.264 29.5869C50.1111 29.5869 50.9179 29.5869 51.6843 29.5869C52.4507 29.5668 53.1162 29.5567 53.681 29.5567C53.923 29.6575 54.0944 29.8189 54.1953 30.0407C54.3163 30.2424 54.3768 30.4643 54.3768 30.7063C54.3768 30.9483 54.3062 31.1702 54.165 31.3719C54.0238 31.5534 53.8625 31.6744 53.681 31.7349ZM57.6966 29.9802C57.5353 29.7584 57.4546 29.5567 57.4546 29.3752C57.4546 29.0726 57.5958 28.8104 57.8781 28.5886C58.1605 28.3667 58.4529 28.2558 58.7555 28.2558C59.0378 28.2558 59.3101 28.397 59.5723 28.6793C59.8547 28.9617 60.1068 29.3046 60.3286 29.7079C60.5505 30.0911 60.7522 30.4945 60.9337 30.9181C61.1152 31.3214 61.2665 31.6542 61.3875 31.9164C61.448 32.7837 61.4883 33.661 61.5085 34.5484C61.5287 35.4157 61.5387 36.3031 61.5387 37.2107C61.5387 38.6628 61.5186 40.0645 61.4782 41.4158C61.4581 42.747 61.4278 44.0176 61.3875 45.2277C61.3673 45.5303 61.2665 45.7521 61.085 45.8933C60.9034 46.0546 60.6816 46.1353 60.4194 46.1353C60.1169 46.1353 59.8143 46.0446 59.5118 45.863C59.2294 45.6815 59.0883 45.4294 59.0883 45.1067C59.0883 44.2596 59.1185 43.3016 59.179 42.2327C59.2597 41.1436 59.3 40.0141 59.3 38.8443C59.3 37.7351 59.2899 36.6359 59.2698 35.5468C59.2496 34.4375 59.2093 33.4291 59.1488 32.5215C58.9672 32.1383 58.7555 31.7248 58.5134 31.2811C58.2714 30.8374 57.9991 30.4038 57.6966 29.9802ZM69.0335 36.0913C69.1142 36.0308 69.2049 35.9804 69.3058 35.9401C69.4066 35.8795 69.5175 35.8493 69.6386 35.8493C70.1629 35.8896 70.7075 36.0308 71.2722 36.2728C71.8369 36.5149 72.3512 36.8577 72.8151 37.3014C73.279 37.7452 73.6622 38.2796 73.9647 38.9048C74.2673 39.5301 74.4185 40.2461 74.4185 41.0528C74.3984 41.8999 74.2471 42.6461 73.9647 43.2915C73.7025 43.9168 73.3395 44.4411 72.8756 44.8647C72.4319 45.2882 71.8975 45.6008 71.2722 45.8025C70.6672 46.0244 70.0016 46.1353 69.2755 46.1353C68.7108 46.1353 68.136 46.0244 67.5511 45.8025C66.9662 45.6008 66.4418 45.2983 65.9779 44.8949C65.5141 44.4714 65.1309 43.9672 64.8283 43.3823C64.5258 42.7974 64.3745 42.1217 64.3745 41.3553C64.3745 40.6696 64.5056 40.004 64.7678 39.3586C65.03 38.6931 65.3527 38.1082 65.7359 37.604C66.1393 37.0998 66.5729 36.6964 67.0368 36.3939C67.5209 36.0913 67.9746 35.9401 68.3982 35.9401C68.62 35.9401 68.8318 35.9905 69.0335 36.0913ZM69.215 37.8762C68.852 38.0578 68.5192 38.2494 68.2167 38.4511C67.9343 38.6326 67.6822 38.8544 67.4603 39.1166C67.2587 39.3788 67.0973 39.7015 66.9763 40.0847C66.8755 40.4679 66.825 40.9419 66.825 41.5066C66.825 42.0108 66.9057 42.4243 67.0671 42.747C67.2486 43.0697 67.4704 43.3319 67.7326 43.5336C68.015 43.7151 68.3175 43.8462 68.6402 43.9268C68.9831 43.9874 69.3159 44.0176 69.6386 44.0176C70.3243 44.0176 70.8991 43.7453 71.363 43.2008C71.8269 42.6562 72.0588 41.9907 72.0588 41.2041C72.0588 40.599 71.968 40.1049 71.7865 39.7217C71.6252 39.3385 71.4033 39.0359 71.121 38.8141C70.8588 38.5721 70.5562 38.3905 70.2134 38.2695C69.8705 38.1284 69.5377 37.9973 69.215 37.8762ZM84.1218 35.4863C84.3033 36.1518 84.4646 36.8476 84.6058 37.5737C84.7672 38.2998 84.9184 39.0259 85.0596 39.7519C85.2008 40.4578 85.3319 41.1335 85.4529 41.7789C85.5941 42.4243 85.7352 43.0092 85.8764 43.5336C86.0781 42.8478 86.2697 42.1823 86.4512 41.5369C86.6529 40.8915 86.8445 40.236 87.026 39.5704C87.2076 38.9048 87.379 38.1989 87.5403 37.4527C87.7219 36.6863 87.8731 35.8493 87.9941 34.9417C88.0345 34.6997 88.1353 34.5282 88.2967 34.4274C88.4782 34.3064 88.6698 34.2459 88.8715 34.2459C89.1942 34.2459 89.4765 34.3467 89.7186 34.5484C89.9808 34.7501 90.1118 35.0022 90.1118 35.3047C89.8698 36.6964 89.5875 38.0578 89.2648 39.3889C88.9622 40.6999 88.6295 41.8797 88.2664 42.9285C87.9235 43.9571 87.5504 44.784 87.1471 45.4092C86.7639 46.0345 86.3605 46.3471 85.9369 46.3471C85.5739 46.3471 85.2411 46.1151 84.9386 45.6513C84.6361 45.2076 84.3638 44.6327 84.1218 43.9268C83.8797 43.2008 83.668 42.3839 83.4864 41.4764C83.3049 40.5688 83.1537 39.6612 83.0326 38.7536C82.8713 39.6612 82.6898 40.5688 82.4881 41.4764C82.2864 42.3638 82.0646 43.1705 81.8225 43.8966C81.5805 44.6025 81.3183 45.1773 81.036 45.621C80.7536 46.0647 80.441 46.2866 80.0981 46.2866C79.6342 46.2866 79.2006 45.9437 78.7972 45.258C78.3939 44.5521 78.0207 43.6546 77.6779 42.5655C77.335 41.4764 77.0224 40.2662 76.74 38.9351C76.4577 37.5838 76.2156 36.2527 76.014 34.9417V34.8207C76.014 34.5787 76.135 34.3669 76.377 34.1854C76.619 33.9837 76.8913 33.8829 77.1938 33.8829C77.4157 33.8829 77.6174 33.9434 77.7989 34.0644C78.0006 34.1854 78.1317 34.377 78.1922 34.6392C78.3939 36.3132 78.6359 37.846 78.9182 39.2376C79.2006 40.6293 79.5838 42.0814 80.0679 43.5941C80.1889 42.626 80.441 41.4965 80.8242 40.2057C81.2074 38.8948 81.5805 37.3216 81.9435 35.4863C82.004 35.1837 82.1351 34.9619 82.3368 34.8207C82.5385 34.6593 82.7604 34.5787 83.0024 34.5787C83.2444 34.5787 83.4663 34.6593 83.668 34.8207C83.8898 34.9619 84.0411 35.1837 84.1218 35.4863ZM101.267 37.1199C101.892 37.9872 102.205 38.7435 102.205 39.3889C102.205 40.0746 101.852 40.5284 101.146 40.7503L94.8233 42.626C95.0855 43.0293 95.4183 43.342 95.8217 43.5638C96.2452 43.7857 96.6688 43.8966 97.0923 43.8966C97.7579 43.8966 98.3831 43.7957 98.968 43.5941C99.573 43.3722 100.138 42.989 100.662 42.4444C100.803 42.3033 100.965 42.2327 101.146 42.2327C101.388 42.2327 101.63 42.3537 101.872 42.5957C102.134 42.8176 102.266 43.0697 102.266 43.352C102.266 43.6344 102.124 43.9268 101.842 44.2294C101.58 44.5319 101.227 44.8243 100.783 45.1067C100.339 45.3689 99.8352 45.5807 99.2705 45.742C98.7058 45.9235 98.131 46.0143 97.5461 46.0143C96.9612 46.0143 96.336 45.9235 95.6704 45.742C95.025 45.5605 94.42 45.2781 93.8552 44.8949C93.2905 44.4916 92.8266 43.9773 92.4636 43.352C92.1006 42.7268 91.919 41.9604 91.919 41.0528C91.919 40.0847 92.2317 38.9754 92.8569 37.725C93.2603 36.9384 93.8754 36.3636 94.7023 36.0006C95.5494 35.6174 96.4368 35.4258 97.3646 35.4258C98.131 35.4258 98.8571 35.5669 99.5428 35.8493C100.249 36.1317 100.824 36.5552 101.267 37.1199ZM94.309 40.599L99.8151 38.9956C99.7142 38.4712 99.4419 38.088 98.9982 37.846C98.5747 37.5838 98.1007 37.4527 97.5763 37.4527C96.9915 37.4527 96.4872 37.5636 96.0637 37.7855C95.6603 37.9872 95.3275 38.2494 95.0654 38.5721C94.8032 38.8948 94.6116 39.2376 94.4905 39.6007C94.3695 39.9637 94.309 40.2965 94.309 40.599ZM108.217 38.2695C109.024 37.4628 109.982 36.8174 111.091 36.3333C112.201 35.8291 113.371 35.5468 114.601 35.4863C114.903 35.5266 115.125 35.6678 115.266 35.9098C115.428 36.1317 115.508 36.3737 115.508 36.6359C115.508 36.8577 115.448 37.0695 115.327 37.2712C115.226 37.4527 115.065 37.5435 114.843 37.5435C113.512 37.846 112.342 38.2292 111.333 38.6931C110.345 39.157 109.549 39.7721 108.943 40.5385C108.943 40.9419 108.964 41.3453 109.004 41.7486C109.064 42.1318 109.095 42.5352 109.095 42.9587C109.095 43.4831 109.075 44.0075 109.034 44.5319C109.014 45.0563 108.954 45.5706 108.853 46.0748C108.833 46.337 108.701 46.5185 108.459 46.6194C108.217 46.7202 107.955 46.7706 107.673 46.7706C107.391 46.7706 107.128 46.7 106.886 46.5589C106.664 46.4378 106.554 46.2563 106.554 46.0143C106.614 45.4496 106.664 44.8748 106.705 44.2899C106.765 43.6848 106.796 43.0898 106.796 42.505C106.796 41.7184 106.695 41.0629 106.493 40.5385C106.311 40.0141 106.14 39.5805 105.979 39.2376C105.918 39.1368 105.797 38.9956 105.616 38.8141C105.454 38.6124 105.283 38.4107 105.101 38.209C104.92 37.9872 104.758 37.7653 104.617 37.5435C104.476 37.3216 104.406 37.13 104.406 36.9687C104.406 36.6258 104.537 36.3333 104.799 36.0913C105.081 35.8291 105.394 35.698 105.737 35.698C106.08 35.698 106.483 35.9501 106.947 36.4544C107.411 36.9586 107.834 37.5636 108.217 38.2695ZM117.951 30.0407C117.79 29.8592 117.709 29.6575 117.709 29.4357C117.709 29.113 117.84 28.8508 118.102 28.6491C118.385 28.4272 118.677 28.3163 118.979 28.3163C119.161 28.3163 119.332 28.3869 119.494 28.5281C119.675 28.6491 119.837 28.8003 119.978 28.9819C120.119 29.1634 120.25 29.355 120.371 29.5567C120.492 29.7584 120.593 29.9399 120.674 30.1012C121.158 29.5163 121.722 29.0928 122.368 28.8306C123.013 28.5482 123.719 28.4071 124.486 28.4071C125.212 28.4071 125.847 28.5281 126.391 28.7701C126.936 28.992 127.39 29.3046 127.753 29.7079C128.136 30.0911 128.418 30.5349 128.6 31.0391C128.802 31.5231 128.902 32.0374 128.902 32.582C128.902 32.8845 128.842 33.2173 128.721 33.5803C128.6 33.9434 128.418 34.2963 128.176 34.6392C127.955 34.9619 127.682 35.2644 127.36 35.5468C127.037 35.8291 126.684 36.051 126.301 36.2123C127.007 36.2728 127.632 36.4544 128.176 36.7569C128.721 37.0392 129.175 37.3922 129.538 37.8157C129.901 38.2191 130.173 38.6729 130.355 39.1771C130.556 39.6612 130.657 40.1452 130.657 40.6293C130.657 41.4965 130.496 42.2629 130.173 42.9285C129.871 43.5941 129.427 44.1588 128.842 44.6227C128.277 45.0664 127.592 45.3992 126.785 45.621C125.978 45.863 125.081 45.984 124.092 45.984C123.447 45.984 122.832 45.9538 122.247 45.8933C121.662 45.8328 121.138 45.7319 120.674 45.5908C120.21 45.4697 119.837 45.3084 119.554 45.1067C119.292 44.905 119.161 44.663 119.161 44.3806C119.222 43.3319 119.272 42.152 119.312 40.841C119.373 39.5099 119.403 38.1788 119.403 36.8476C119.403 36.0207 119.393 35.2342 119.373 34.4879C119.353 33.7417 119.322 33.0459 119.282 32.4005C119.101 32.0173 118.909 31.634 118.707 31.2508C118.506 30.8676 118.253 30.4643 117.951 30.0407ZM121.551 32.3702C121.591 33.3383 121.622 34.3266 121.642 35.335C121.662 36.3434 121.672 37.3317 121.672 38.2998C121.672 39.2679 121.652 40.1956 121.612 41.0831C121.591 41.9705 121.561 42.7772 121.521 43.5033C122.025 43.6243 122.539 43.7252 123.064 43.8058C123.588 43.8865 124.052 43.9268 124.455 43.9268C124.818 43.9268 125.232 43.8663 125.696 43.7453C126.16 43.6243 126.593 43.4428 126.997 43.2008C127.42 42.9587 127.773 42.6562 128.055 42.2932C128.338 41.91 128.479 41.4562 128.479 40.9318C128.439 39.883 128.015 39.0662 127.208 38.4813C126.422 37.8964 125.302 37.604 123.85 37.604C123.628 37.604 123.457 37.4729 123.336 37.2107C123.235 36.9485 123.185 36.6762 123.185 36.3939C123.185 36.0106 123.296 35.7485 123.517 35.6073C124.445 35.2442 125.212 34.8106 125.817 34.3064C126.422 33.8022 126.724 33.2475 126.724 32.6425C126.684 31.9769 126.492 31.4525 126.149 31.0693C125.827 30.666 125.292 30.4643 124.546 30.4643C123.941 30.4643 123.376 30.6155 122.852 30.9181C122.348 31.2004 121.914 31.6845 121.551 32.3702ZM132.797 42.1419C132.797 41.4562 132.797 40.841 132.797 40.2965C132.817 39.7318 132.827 39.1973 132.827 38.6931C132.848 38.1687 132.858 37.6342 132.858 37.0897C132.878 36.5249 132.898 35.8896 132.918 35.1837C132.918 34.7804 133.059 34.4879 133.342 34.3064C133.644 34.1047 133.957 34.0039 134.28 34.0039C134.522 34.0039 134.733 34.0946 134.915 34.2761C135.117 34.4375 135.217 34.6795 135.217 35.0022C135.217 35.7081 135.207 36.3535 135.187 36.9384C135.187 37.5031 135.177 38.0678 135.157 38.6326C135.137 39.1771 135.117 39.7318 135.096 40.2965C135.096 40.8612 135.096 41.4864 135.096 42.1722C135.096 42.5352 135.157 42.8478 135.278 43.11C135.419 43.3722 135.59 43.5941 135.792 43.7756C136.014 43.9571 136.246 44.0882 136.488 44.1689C136.73 44.2495 136.962 44.2899 137.184 44.2899C137.607 44.2899 138.081 44.1285 138.606 43.8058C139.15 43.463 139.614 43.0293 139.997 42.505C139.957 41.7587 139.927 41.0831 139.907 40.478C139.886 39.8528 139.876 39.278 139.876 38.7536C139.876 38.209 139.876 37.6443 139.876 37.0594C139.876 36.4745 139.917 35.9501 139.997 35.4863C140.078 35.0022 140.219 34.6089 140.421 34.3064C140.623 34.0039 140.935 33.8526 141.359 33.8526C141.621 33.8929 141.863 34.0039 142.085 34.1854C142.307 34.3467 142.418 34.5787 142.418 34.8812C142.357 35.6073 142.297 36.3939 142.236 37.2409C142.176 38.0678 142.145 38.9553 142.145 39.9032C142.145 40.3872 142.155 40.9015 142.176 41.4461C142.196 41.9705 142.236 42.505 142.297 43.0495C142.377 43.2512 142.498 43.4932 142.66 43.7756C142.841 44.0579 143.013 44.3403 143.174 44.6227C143.355 44.905 143.507 45.1773 143.628 45.4395C143.749 45.6815 143.809 45.8731 143.809 46.0143C143.809 46.337 143.678 46.6093 143.416 46.8311C143.154 47.053 142.871 47.1639 142.569 47.1639C142.387 47.1639 142.196 47.0832 141.994 46.9219C141.813 46.7807 141.641 46.5992 141.48 46.3773C141.318 46.1555 141.167 45.9235 141.026 45.6815C140.905 45.4597 140.814 45.258 140.754 45.0765C140.229 45.5202 139.624 45.8832 138.938 46.1656C138.253 46.4479 137.537 46.5891 136.791 46.5891C136.145 46.5891 135.57 46.458 135.066 46.1958C134.582 45.9336 134.169 45.5908 133.826 45.1672C133.483 44.7437 133.221 44.2697 133.039 43.7453C132.878 43.2008 132.797 42.6663 132.797 42.1419ZM152.302 30.2222C152.141 30.0407 152.06 29.839 152.06 29.6172C152.06 29.2945 152.191 29.0323 152.454 28.8306C152.736 28.6087 153.028 28.4978 153.331 28.4978C153.633 28.4978 153.926 28.6592 154.208 28.9819C154.491 29.2844 154.743 29.6474 154.965 30.071C155.186 30.4743 155.378 30.8676 155.539 31.2508C155.701 31.634 155.812 31.8962 155.872 32.0374C155.913 33.0862 155.943 34.1047 155.963 35.093C155.983 36.0611 155.993 37.0191 155.993 37.967C155.993 38.6326 155.993 39.2881 155.993 39.9334C155.993 40.5587 155.973 41.194 155.933 41.8394C155.973 42.3436 156.114 42.7974 156.356 43.2008C156.618 43.6041 156.86 44.0176 157.082 44.4411C157.143 44.5622 157.173 44.6832 157.173 44.8042C157.173 45.1269 157.032 45.379 156.75 45.5605C156.487 45.7622 156.215 45.863 155.933 45.863C155.247 45.863 154.662 45.2176 154.178 43.9268C153.291 44.7538 152.222 45.1672 150.971 45.1672C149.459 45.1672 148.258 44.7638 147.371 43.9571C146.504 43.1302 146.07 41.8999 146.07 40.2662C146.07 39.52 146.221 38.8544 146.524 38.2695C146.827 37.6846 147.2 37.2006 147.643 36.8174C148.107 36.414 148.611 36.1115 149.156 35.9098C149.721 35.7081 150.265 35.6073 150.79 35.6073C151.274 35.6476 151.778 35.7485 152.302 35.9098C152.827 36.0712 153.321 36.293 153.785 36.5754C153.785 35.8896 153.775 35.214 153.754 34.5484C153.734 33.8627 153.694 33.2072 153.633 32.582C153.452 32.1988 153.26 31.8156 153.059 31.4324C152.857 31.0492 152.605 30.6458 152.302 30.2222ZM153.694 40.478V40.236C153.674 39.5301 153.371 38.9351 152.786 38.4511C152.222 37.967 151.465 37.725 150.517 37.725C150.316 37.725 150.084 37.7754 149.822 37.8762C149.58 37.9771 149.338 38.1384 149.095 38.3603C148.874 38.562 148.682 38.8343 148.521 39.1771C148.38 39.52 148.309 39.9234 148.309 40.3872C148.309 41.1537 148.531 41.7991 148.974 42.3234C149.418 42.8478 150.023 43.11 150.79 43.11C151.133 43.11 151.465 43.0495 151.788 42.9285C152.131 42.7873 152.433 42.5957 152.696 42.3537C152.978 42.1117 153.2 41.8293 153.361 41.5066C153.543 41.1839 153.654 40.841 153.694 40.478ZM165.091 30.2222C164.93 30.0407 164.849 29.839 164.849 29.6172C164.849 29.2945 164.98 29.0323 165.243 28.8306C165.525 28.6087 165.817 28.4978 166.12 28.4978C166.422 28.4978 166.715 28.6592 166.997 28.9819C167.28 29.2844 167.532 29.6474 167.754 30.071C167.975 30.4743 168.167 30.8676 168.328 31.2508C168.49 31.634 168.601 31.8962 168.661 32.0374C168.702 33.0862 168.732 34.1047 168.752 35.093C168.772 36.0611 168.782 37.0191 168.782 37.967C168.782 38.6326 168.782 39.2881 168.782 39.9334C168.782 40.5587 168.762 41.194 168.722 41.8394C168.762 42.3436 168.903 42.7974 169.145 43.2008C169.407 43.6041 169.649 44.0176 169.871 44.4411C169.932 44.5622 169.962 44.6832 169.962 44.8042C169.962 45.1269 169.821 45.379 169.539 45.5605C169.276 45.7622 169.004 45.863 168.722 45.863C168.036 45.863 167.451 45.2176 166.967 43.9268C166.08 44.7538 165.011 45.1672 163.76 45.1672C162.248 45.1672 161.048 44.7638 160.16 43.9571C159.293 43.1302 158.859 41.8999 158.859 40.2662C158.859 39.52 159.01 38.8544 159.313 38.2695C159.616 37.6846 159.989 37.2006 160.432 36.8174C160.896 36.414 161.4 36.1115 161.945 35.9098C162.51 35.7081 163.054 35.6073 163.579 35.6073C164.063 35.6476 164.567 35.7485 165.091 35.9098C165.616 36.0712 166.11 36.293 166.574 36.5754C166.574 35.8896 166.564 35.214 166.543 34.5484C166.523 33.8627 166.483 33.2072 166.422 32.582C166.241 32.1988 166.049 31.8156 165.848 31.4324C165.646 31.0492 165.394 30.6458 165.091 30.2222ZM166.483 40.478V40.236C166.463 39.5301 166.16 38.9351 165.575 38.4511C165.011 37.967 164.254 37.725 163.306 37.725C163.105 37.725 162.873 37.7754 162.611 37.8762C162.369 37.9771 162.127 38.1384 161.885 38.3603C161.663 38.562 161.471 38.8343 161.31 39.1771C161.169 39.52 161.098 39.9234 161.098 40.3872C161.098 41.1537 161.32 41.7991 161.764 42.3234C162.207 42.8478 162.812 43.11 163.579 43.11C163.922 43.11 164.254 43.0495 164.577 42.9285C164.92 42.7873 165.222 42.5957 165.485 42.3537C165.767 42.1117 165.989 41.8293 166.15 41.5066C166.332 41.1839 166.443 40.841 166.483 40.478ZM177.215 50.5522C176.63 51.0161 175.954 51.2481 175.188 51.2481C174.522 51.2481 173.857 51.0867 173.191 50.764C172.546 50.4413 172.031 50.0077 171.648 49.4631C171.568 49.3825 171.527 49.2715 171.527 49.1304C171.527 48.8682 171.618 48.5858 171.8 48.2833C172.001 48.0009 172.233 47.8597 172.495 47.8597C172.596 47.8597 172.697 47.89 172.798 47.9505C173.161 48.2732 173.534 48.5253 173.917 48.7068C174.321 48.8883 174.704 48.9791 175.067 48.9791C175.732 48.9791 176.267 48.5556 176.67 47.7085C177.094 46.8816 177.427 45.6613 177.669 44.0479C177.366 44.1487 177.053 44.2294 176.731 44.2899C176.428 44.3302 176.106 44.3504 175.763 44.3504C175.46 44.3504 175.047 44.3302 174.522 44.2899C173.998 44.2495 173.474 44.068 172.949 43.7453C172.425 43.4226 171.971 42.9184 171.588 42.2327C171.205 41.5268 171.013 40.5083 171.013 39.1771C171.013 38.8141 171.023 38.441 171.043 38.0578C171.063 37.6746 171.084 37.3014 171.104 36.9384C171.144 36.5552 171.184 36.2022 171.225 35.8795C171.265 35.5367 171.305 35.2442 171.346 35.0022C171.386 34.6795 171.507 34.4476 171.709 34.3064C171.91 34.1652 172.132 34.0946 172.374 34.0946C172.657 34.0946 172.919 34.1753 173.161 34.3366C173.403 34.498 173.524 34.7199 173.524 35.0022C173.524 35.3652 173.484 35.809 173.403 36.3333C173.322 36.8577 173.282 37.4023 173.282 37.967C173.282 38.7536 173.302 39.4191 173.342 39.9637C173.383 40.4881 173.494 40.9217 173.675 41.2646C173.857 41.5873 174.119 41.8192 174.462 41.9604C174.825 42.1016 175.309 42.1722 175.914 42.1722C176.277 42.1722 176.6 42.1217 176.882 42.0209C177.185 41.9201 177.538 41.8192 177.941 41.7184C178.062 40.2057 178.122 38.683 178.122 37.1502C178.122 36.4644 178.112 35.809 178.092 35.1837C178.072 34.5383 178.042 33.9534 178.001 33.4291C178.001 33.2072 178.112 33.0257 178.334 32.8845C178.556 32.7232 178.828 32.6425 179.151 32.6425C179.393 32.6425 179.625 32.6929 179.847 32.7937C180.069 32.8744 180.22 33.0257 180.301 33.2475C180.341 33.7114 180.371 34.2056 180.391 34.7299C180.412 35.2342 180.422 35.7485 180.422 36.2728C180.422 37.6846 180.351 39.1469 180.21 40.6595C180.089 42.152 179.887 43.5638 179.605 44.8949C179.343 46.2261 179.01 47.3959 178.606 48.4043C178.203 49.4127 177.739 50.1287 177.215 50.5522Z" fill="#1F1F1F"/>
<path d="M97.5 13.5H35.5V56.5H188.5V13.5H127.5" stroke="black"/>
</g>
<defs>
<filter id="filter0_i_140_1603" x="0" y="0" width="226" height="62.2004" filterUnits="userSpaceOnUse" color-interpolation-filters="sRGB">
<feFlood flood-opacity="0" result="BackgroundImageFix"/>
<feBlend mode="normal" in="SourceGraphic" in2="BackgroundImageFix" result="shape"/>
<feColorMatrix in="SourceAlpha" type="matrix" values="0 0 0 0 0 0 0 0 0 0 0 0 0 0 0 0 0 0 127 0" result="hardAlpha"/>
<feOffset dy="4"/>
<feGaussianBlur stdDeviation="2"/>
<feComposite in2="hardAlpha" operator="arithmetic" k2="-1" k3="1"/>
<feColorMatrix type="matrix" values="0 0 0 0 0 0 0 0 0 0 0 0 0 0 0 0 0 0 0.25 0"/>
<feBlend mode="normal" in2="shape" result="effect1_innerShadow_140_1603"/>
</filter>
</defs>
</svg>
