<svg width="44" height="45" viewBox="0 0 44 45" fill="none" xmlns="http://www.w3.org/2000/svg">
<path d="M34 14.25V30.75C34 31.9922 32.8482 33 31.4286 33H18.2714C18.7964 32.2313 19.4714 31.125 19.7393 30.2203C19.9 29.6813 20.5589 27.4828 20.5589 27.4828C20.9875 28.2 22.2411 28.8047 23.575 28.8047C27.5446 28.8047 30.4 25.6125 30.4 21.6469C30.4 17.8453 26.8536 15 22.2893 15C16.6107 15 13.6 18.3328 13.6 21.9656C13.6 23.6531 14.6286 25.7531 16.2679 26.4234C16.5196 26.5266 16.6482 26.4797 16.7071 26.2687C16.75 26.1094 16.975 25.3266 17.0714 24.9656C17.1036 24.8484 17.0875 24.75 16.9804 24.6375C16.4393 24.0609 16 23.0016 16 22.0125C16 19.4719 18.1964 17.0156 21.9411 17.0156C25.1714 17.0156 27.4375 18.9422 27.4375 21.6984C27.4375 24.8109 25.6429 26.9672 23.3018 26.9672C22.0107 26.9672 21.0464 26.0344 21.3518 24.8859C21.7214 23.5172 22.4393 22.0406 22.4393 21.0516C22.4393 18.5672 18.3946 18.9094 18.3946 22.2234C18.3946 23.2406 18.7857 23.9344 18.7857 23.9344C17.1036 30.1594 16.8518 30.2391 17.2 32.9625L17.3179 33H12.5714C11.1518 33 10 31.9922 10 30.75V14.25C10 13.0078 11.1518 12 12.5714 12H31.4286C32.8482 12 34 13.0078 34 14.25Z" fill="#999999"/>
</svg>
