<svg width="16" height="17" viewBox="0 0 16 17" fill="none" xmlns="http://www.w3.org/2000/svg">
<path d="M10.68 11.9404C9.47433 12.8762 7.95739 13.3174 6.43792 13.1742C4.91845 13.031 3.51067 12.3141 2.50113 11.1695C1.4916 10.0249 0.956198 8.53855 1.00391 7.01309C1.05163 5.48763 1.67887 4.03769 2.75797 2.95841C3.83725 1.87931 5.2872 1.25207 6.81265 1.20435C8.33811 1.15664 9.82442 1.69204 10.969 2.70157C12.1137 3.71111 12.8305 5.11889 12.9738 6.63836C13.117 8.15783 12.6758 9.67477 11.74 10.8804L14.78 13.9204C14.8787 14.0121 14.9509 14.1287 14.9889 14.2579C15.0269 14.3872 15.0293 14.5243 14.996 14.6548C14.9626 14.7853 14.8946 14.9044 14.7992 14.9996C14.7039 15.0947 14.5846 15.1624 14.454 15.1954C14.3236 15.2287 14.1866 15.2263 14.0575 15.1885C13.9284 15.1507 13.8118 15.0788 13.72 14.9804L10.68 11.9404ZM11.5 7.20041C11.5089 6.60401 11.3991 6.0118 11.177 5.45822C10.9549 4.90465 10.625 4.40076 10.2064 3.97586C9.78776 3.55097 9.28884 3.21355 8.73864 2.98325C8.18844 2.75294 7.59793 2.63433 7.00147 2.63433C6.40501 2.63433 5.8145 2.75294 5.26429 2.98325C4.71409 3.21355 4.21517 3.55097 3.79657 3.97586C3.37796 4.40076 3.04802 4.90465 2.82594 5.45822C2.60386 6.0118 2.49407 6.60401 2.50297 7.20041C2.52058 8.38187 3.00228 9.50897 3.844 10.3382C4.68571 11.1675 5.81988 11.6323 7.00147 11.6323C8.18306 11.6323 9.31722 11.1675 10.1589 10.3382C11.0007 9.50897 11.4824 8.38187 11.5 7.20041Z" fill="#1F1F1F"/>
</svg>
