<svg width="17" height="17" viewBox="0 0 17 17" fill="none" xmlns="http://www.w3.org/2000/svg">
<path d="M3.16699 6.96236C3.16699 3.96436 5.55499 1.53369 8.50033 1.53369C11.4457 1.53369 13.8337 3.96436 13.8337 6.96236C13.8337 9.93702 12.1317 13.409 9.47566 14.6497C9.17038 14.7926 8.83741 14.8667 8.50033 14.8667C8.16324 14.8667 7.83027 14.7926 7.52499 14.6497C4.86899 13.4084 3.16699 9.93769 3.16699 6.96302V6.96236Z" stroke="#1F1F1F"/>
<path d="M8.5 8.86707C9.60457 8.86707 10.5 7.97164 10.5 6.86707C10.5 5.7625 9.60457 4.86707 8.5 4.86707C7.39543 4.86707 6.5 5.7625 6.5 6.86707C6.5 7.97164 7.39543 8.86707 8.5 8.86707Z" stroke="#1F1F1F"/>
</svg>
