<svg width="20" height="19" viewBox="0 0 20 19" fill="none" xmlns="http://www.w3.org/2000/svg">
<path d="M9.04894 1.12749C9.3483 0.206181 10.6517 0.206179 10.9511 1.12749L12.4697 5.80125C12.6035 6.21327 12.9875 6.49224 13.4207 6.49224H18.335C19.3037 6.49224 19.7065 7.73185 18.9228 8.30125L14.947 11.1898C14.5966 11.4444 14.4499 11.8958 14.5838 12.3078L16.1024 16.9816C16.4017 17.9029 15.3472 18.669 14.5635 18.0996L10.5878 15.2111C10.2373 14.9564 9.7627 14.9564 9.41221 15.2111L5.43648 18.0996C4.65276 18.669 3.59828 17.9029 3.89763 16.9816L5.41623 12.3078C5.55011 11.8958 5.40345 11.4444 5.05296 11.1898L1.07722 8.30125C0.293507 7.73185 0.696283 6.49224 1.66501 6.49224H6.57929C7.01252 6.49224 7.39647 6.21327 7.53035 5.80125L9.04894 1.12749Z" fill="#999999"/>
</svg>
