<svg width="15" height="14" viewBox="0 0 15 14" fill="none" xmlns="http://www.w3.org/2000/svg">
<path d="M7.33301 7C6.37051 7 5.54655 6.65729 4.86113 5.97188C4.17572 5.28646 3.83301 4.4625 3.83301 3.5C3.83301 2.5375 4.17572 1.71354 4.86113 1.02813C5.54655 0.342708 6.37051 0 7.33301 0C8.29551 0 9.11946 0.342708 9.80488 1.02813C10.4903 1.71354 10.833 2.5375 10.833 3.5C10.833 4.4625 10.4903 5.28646 9.80488 5.97188C9.11946 6.65729 8.29551 7 7.33301 7ZM0.333008 14V11.55C0.333008 11.0542 0.460758 10.5986 0.716258 10.1832C0.971758 9.76792 1.31067 9.45058 1.73301 9.23125C2.63717 8.77917 3.55592 8.44025 4.48926 8.2145C5.42259 7.98875 6.37051 7.87558 7.33301 7.875C8.29551 7.87442 9.24342 7.98758 10.1768 8.2145C11.1101 8.44142 12.0288 8.78033 12.933 9.23125C13.3559 9.45 13.6951 9.76733 13.9506 10.1832C14.2061 10.5992 14.3336 11.0548 14.333 11.55V14H0.333008ZM2.08301 12.25H12.583V11.55C12.583 11.3896 12.543 11.2438 12.4631 11.1125C12.3832 10.9813 12.2773 10.8792 12.1455 10.8063C11.358 10.4125 10.5632 10.1173 9.76113 9.92075C8.95905 9.72417 8.14967 9.62558 7.33301 9.625C6.51634 9.62442 5.70697 9.723 4.90488 9.92075C4.1028 10.1185 3.30801 10.4137 2.52051 10.8063C2.38926 10.8792 2.28338 10.9813 2.20288 11.1125C2.12238 11.2438 2.08242 11.3896 2.08301 11.55V12.25ZM7.33301 5.25C7.81426 5.25 8.22638 5.07879 8.56938 4.73638C8.91238 4.39396 9.08359 3.98183 9.08301 3.5C9.08242 3.01817 8.91121 2.60633 8.56938 2.2645C8.22755 1.92267 7.81542 1.75117 7.33301 1.75C6.85059 1.74883 6.43876 1.92033 6.09751 2.2645C5.75626 2.60867 5.58476 3.0205 5.58301 3.5C5.58126 3.9795 5.75276 4.39163 6.09751 4.73638C6.44226 5.08113 6.85409 5.25233 7.33301 5.25Z" fill="#1F1F1F"/>
</svg>
