<svg width="44" height="45" viewBox="0 0 44 45" fill="none" xmlns="http://www.w3.org/2000/svg">
<path d="M32.4684 17.2675C32.3801 16.9219 32.2109 16.6022 31.9747 16.3349C31.7385 16.0676 31.4421 15.8602 31.11 15.73C27.8962 14.4888 22.7812 14.5 22.5 14.5C22.2188 14.5 17.1037 14.4888 13.89 15.73C13.5579 15.8602 13.2615 16.0676 13.0253 16.3349C12.7891 16.6022 12.6199 16.9219 12.5316 17.2675C12.2888 18.2031 12 19.9131 12 22.75C12 25.5869 12.2888 27.2969 12.5316 28.2325C12.6198 28.5783 12.789 28.8981 13.0252 29.1656C13.2614 29.4331 13.5578 29.6406 13.89 29.7709C16.9688 30.9588 21.7875 31 22.4381 31H22.5619C23.2125 31 28.0341 30.9588 31.11 29.7709C31.4422 29.6406 31.7386 29.4331 31.9748 29.1656C32.211 28.8981 32.3802 28.5783 32.4684 28.2325C32.7113 27.295 33 25.5869 33 22.75C33 19.9131 32.7113 18.2031 32.4684 17.2675ZM25.5553 23.3613L21.8053 25.9863C21.6931 26.0648 21.5616 26.1112 21.4249 26.1203C21.2883 26.1294 21.1517 26.101 21.0301 26.038C20.9085 25.975 20.8064 25.8799 20.735 25.763C20.6636 25.6462 20.6256 25.512 20.625 25.375V20.125C20.625 19.9878 20.6627 19.8532 20.7339 19.736C20.8051 19.6187 20.9071 19.5232 21.0289 19.4599C21.1506 19.3965 21.2873 19.3678 21.4242 19.3768C21.5611 19.3858 21.6929 19.4322 21.8053 19.5109L25.5553 22.1359C25.654 22.2051 25.7345 22.297 25.7901 22.4039C25.8457 22.5108 25.8747 22.6295 25.8747 22.75C25.8747 22.8705 25.8457 22.9892 25.7901 23.0961C25.7345 23.203 25.654 23.2949 25.5553 23.3641V23.3613Z" fill="#999999"/>
</svg>
